<?xml version="1.0" standalone="no"?>
<!DOCTYPE svg PUBLIC "-//W3C//DTD SVG 20010904//EN"
 "http://www.w3.org/TR/2001/REC-SVG-20010904/DTD/svg10.dtd">
<svg version="1.0" xmlns="http://www.w3.org/2000/svg"
 width="512.000000pt" height="512.000000pt" viewBox="0 0 512.000000 512.000000"
 preserveAspectRatio="xMidYMid meet">

<g transform="translate(0.000000,512.000000) scale(0.100000,-0.100000)"
fill="#000000" stroke="none">
<path d="M1742 4530 c-118 -18 -233 -104 -289 -217 l-28 -58 -3 -552 c-2 -523
-2 -554 17 -607 39 -112 117 -192 231 -238 50 -19 77 -22 290 -26 145 -2 240
-8 248 -15 7 -5 60 -79 118 -163 58 -85 114 -159 126 -165 37 -20 96 -14 125
12 14 13 70 90 124 171 68 101 106 149 122 153 12 2 148 6 302 7 l280 3 67 32
c126 59 206 164 228 298 13 78 13 962 0 1040 -22 134 -102 239 -228 298 l-67
32 -805 1 c-443 1 -829 -2 -858 -6z m-90 -369 c32 -29 33 -31 36 -123 2 -79 0
-98 -17 -125 -42 -68 -150 -63 -186 8 -13 24 -16 52 -13 121 3 87 4 91 36 119
45 40 99 40 144 0z m330 -158 c18 -16 258 -571 258 -597 0 -28 -13 -48 -36
-57 -44 -16 -68 4 -104 85 l-33 77 -140 -3 -141 -3 -26 -64 c-14 -36 -37 -73
-52 -84 -23 -17 -29 -18 -54 -6 -51 25 -45 50 82 349 64 151 119 281 122 289
7 19 63 41 87 34 11 -3 28 -12 37 -20z m1427 -1 c29 -12 62 -29 72 -38 27 -24
25 -70 -4 -89 -21 -13 -29 -12 -92 10 -193 68 -337 -18 -337 -200 0 -184 148
-271 338 -200 62 23 69 24 91 10 33 -22 31 -67 -4 -94 -78 -62 -254 -77 -360
-31 -62 26 -136 101 -164 166 -39 86 -35 233 8 318 38 75 126 145 210 166 57
14 181 5 242 -18z m-667 -14 c94 -56 118 -189 47 -264 l-20 -22 29 -23 c48
-39 63 -72 63 -133 0 -79 -31 -132 -96 -165 -46 -24 -60 -26 -221 -29 -164 -3
-173 -3 -193 17 -20 20 -21 30 -21 316 0 286 1 296 21 316 20 20 29 21 182 17
156 -3 164 -4 209 -30z"/>
<path d="M1904 3787 c-12 -29 -31 -76 -42 -104 l-22 -53 89 0 89 0 -42 100
c-23 54 -44 101 -47 104 -2 3 -14 -19 -25 -47z"/>
<path d="M2460 3825 l0 -77 106 4 c97 3 107 5 125 27 25 31 24 73 -2 97 -17
16 -40 20 -125 22 l-104 4 0 -77z"/>
<path d="M2460 3550 l0 -82 119 4 c139 4 161 14 161 78 0 64 -22 74 -161 78
l-119 4 0 -82z"/>
<path d="M3005 1759 c-131 -17 -269 -61 -387 -124 l-61 -33 -61 33 c-81 45
-220 91 -336 111 -129 22 -382 15 -530 -15 -58 -12 -204 -55 -325 -96 -121
-41 -252 -82 -290 -90 -139 -29 -273 -14 -453 51 -126 45 -194 46 -280 3 -259
-129 -204 -468 100 -618 111 -55 202 -73 363 -73 203 0 409 43 699 148 198 71
326 103 446 110 170 12 215 -22 230 -172 28 -269 275 -453 533 -399 193 40
321 186 351 400 11 82 17 100 42 126 42 44 90 53 211 40 128 -15 204 -34 423
-111 322 -112 547 -157 745 -147 200 10 341 63 452 170 90 86 128 166 128 267
0 61 -5 84 -27 125 -80 152 -245 209 -408 141 -136 -56 -281 -79 -409 -65 -50
6 -134 28 -228 60 -243 84 -320 107 -416 128 -180 39 -359 49 -512 30z m-1577
-245 c37 -24 56 -80 43 -124 -14 -49 -33 -63 -116 -95 -229 -86 -406 -115
-580 -96 -184 21 -367 79 -418 132 -21 23 -27 39 -27 75 0 39 5 51 34 80 43
43 75 44 176 5 109 -43 213 -61 343 -61 126 0 194 14 362 74 104 37 139 39
183 10z"/>
</g>
</svg>
